# xmcd
#
# Track frame offsets: 
#        150
#        20373
#        58724
#
# Disc length: 1076 seconds
#
# Revision: 0
# Processed by: cddbd v1.5.2PL0 Copyright (c) Steve Scherf et al.
# Submitted via: ExactAudioCopy v1.0b4
#
DISCID=1d043203
DTITLE=George 'Harmonica' Smith - The King Of Harmonica
DYEAR=2014
DGENRE=Blues
TTITLE0=Stockholm Swing
TTITLE1=Misty
TTITLE2=Bad Luck At My Door
EXTD=
EXTT0=
EXTT1=
EXTT2=
PLAYORDER=
